<svg xmlns="http://www.w3.org/2000/svg" xmlns:xlink="http://www.w3.org/1999/xlink" width="500" zoomAndPan="magnify" viewBox="0 0 375 374.999991" height="500" preserveAspectRatio="xMidYMid meet" version="1.0"><defs><g/><clipPath id="0f92a127fe"><path d="M 152.652344 130.882812 L 222.402344 130.882812 L 222.402344 200.632812 L 152.652344 200.632812 Z M 152.652344 130.882812 " clip-rule="nonzero"/></clipPath></defs><g fill="#000000" fill-opacity="1"><g transform="translate(120.273279, 181.803941)"><g><path d="M 22.8125 1.242188 C 33.285156 1.242188 40.867188 -6.339844 42.519531 -18.605469 L 34.457031 -20.125 C 33.21875 -11.507812 28.808594 -6.339844 22.8125 -6.339844 C 15.230469 -6.339844 10.683594 -13.09375 10.683594 -24.394531 C 10.683594 -35.765625 14.679688 -42.660156 21.363281 -42.660156 C 26.324219 -42.660156 29.839844 -38.316406 31.011719 -30.597656 L 39.074219 -32.046875 C 37.488281 -43.484375 30.875 -50.101562 21.433594 -50.101562 C 9.441406 -50.101562 2.066406 -40.316406 2.066406 -24.394531 C 2.066406 -8.476562 9.855469 1.242188 22.8125 1.242188 Z M 22.8125 1.242188 "/></g></g></g><g clip-path="url(#0f92a127fe)"><path fill="#00bf63" d="M 195.226562 130.882812 C 180.285156 130.882812 168.109375 143.058594 168.109375 158 C 168.109375 164.480469 170.707031 170.203125 174.519531 174.875 L 152.636719 196.757812 L 156.46875 200.59375 L 178.355469 178.710938 C 183.027344 182.519531 188.75 185.117188 195.226562 185.117188 C 210.167969 185.117188 222.34375 172.941406 222.34375 158 C 222.34375 143.058594 210.167969 130.882812 195.226562 130.882812 Z M 195.226562 136.308594 C 207.234375 136.308594 216.921875 145.992188 216.921875 158 C 216.921875 170.007812 207.234375 179.695312 195.226562 179.695312 C 183.21875 179.695312 173.535156 170.007812 173.535156 158 C 173.535156 145.992188 183.21875 136.308594 195.226562 136.308594 Z M 187.183594 148.128906 L 178.957031 158 L 187.183594 167.875 L 191.351562 164.398438 L 186.019531 158 L 191.351562 151.601562 Z M 203.304688 148.128906 L 199.136719 151.601562 L 204.46875 158 L 199.136719 164.398438 L 203.304688 167.875 L 211.535156 158 Z M 203.304688 148.128906 " fill-opacity="1" fill-rule="nonzero"/></g><g fill="#000000" fill-opacity="1"><g transform="translate(222.814428, 176.138679)"><g><path d="M 14.265625 0.894531 C 18.605469 0.894531 22.328125 -1.378906 23.914062 -5.511719 L 23.984375 -5.511719 L 24.742188 0 L 31.496094 0 L 31.496094 -50.929688 L 23.707031 -50.929688 L 23.707031 -29.773438 L 23.636719 -29.773438 C 21.984375 -33.699219 18.539062 -35.972656 14.265625 -35.972656 C 6.476562 -35.972656 1.722656 -29.011719 1.722656 -17.503906 C 1.722656 -6.066406 6.476562 0.894531 14.265625 0.894531 Z M 16.746094 -6.066406 C 12.199219 -6.066406 9.511719 -10.335938 9.511719 -17.503906 C 9.511719 -24.742188 12.199219 -28.945312 16.746094 -28.945312 C 21.296875 -28.945312 23.984375 -24.742188 23.984375 -17.503906 C 23.984375 -10.335938 21.296875 -6.066406 16.746094 -6.066406 Z M 16.746094 -6.066406 "/></g></g></g><g fill="#000000" fill-opacity="1"><g transform="translate(257.201181, 176.138679)"><g><path d="M 7.167969 -40.867188 C 10.128906 -40.867188 12.199219 -42.867188 12.199219 -45.761719 C 12.199219 -48.585938 10.128906 -50.585938 7.167969 -50.585938 C 4.273438 -50.585938 2.273438 -48.585938 2.273438 -45.761719 C 2.273438 -42.867188 4.273438 -40.867188 7.167969 -40.867188 Z M 3.308594 0 L 11.09375 0 L 11.09375 -35.078125 L 3.308594 -35.078125 Z M 3.308594 0 "/></g></g></g><g fill="#000000" fill-opacity="1"><g transform="translate(271.672566, 176.138679)"><g><path d="M 19.984375 -35.835938 C 15.78125 -35.835938 12.128906 -33.769531 10.40625 -30.117188 L 10.335938 -30.117188 L 9.511719 -35.078125 L 2.964844 -35.078125 L 2.964844 0 L 10.683594 0 L 10.683594 -22.328125 C 10.683594 -26.878906 13.023438 -29.496094 17.023438 -29.496094 C 19.777344 -29.496094 21.433594 -27.773438 21.433594 -24.671875 L 21.433594 0 L 29.152344 0 L 29.152344 -25.773438 C 29.152344 -32.183594 25.636719 -35.835938 19.984375 -35.835938 Z M 19.984375 -35.835938 "/></g></g></g><g fill="#000000" fill-opacity="1"><g transform="translate(303.509602, 176.138679)"><g><path d="M 15.023438 15.4375 C 25.429688 15.4375 31.769531 9.234375 31.769531 -1.445312 L 31.703125 -35.078125 L 24.671875 -35.078125 L 23.984375 -29.703125 L 23.914062 -29.703125 C 22.328125 -33.632812 18.746094 -36.042969 14.402344 -36.042969 C 6.824219 -36.042969 2 -28.738281 2 -17.367188 C 2 -6.339844 6.824219 0.757812 14.402344 0.757812 C 18.539062 0.757812 22.121094 -2.066406 23.914062 -6.066406 L 23.984375 -6.066406 L 23.914062 -1.445312 C 23.914062 4.960938 20.261719 8.890625 14.195312 8.890625 C 10.128906 8.890625 6.203125 6.476562 3.929688 2.824219 L -0.34375 7.996094 C 2.410156 12.542969 8.339844 15.4375 15.023438 15.4375 Z M 16.953125 -5.789062 C 12.613281 -5.789062 9.71875 -10.40625 9.71875 -17.574219 C 9.71875 -24.742188 12.542969 -29.289062 16.953125 -29.289062 C 21.363281 -29.289062 24.1875 -24.742188 24.1875 -17.574219 C 24.1875 -10.40625 21.363281 -5.789062 16.953125 -5.789062 Z M 16.953125 -5.789062 "/></g></g></g><g fill="#000000" fill-opacity="1"><g transform="translate(167.684521, 200.990598)"><g><path d="M 0.675781 -2.761719 C 0.675781 -1.15625 1.648438 0.105469 3.765625 0.105469 C 4.664062 0.105469 6.34375 -0.121094 6.34375 -1.199219 C 6.34375 -1.546875 6.164062 -1.964844 5.386719 -1.964844 C 5.175781 -1.964844 5.070312 -1.933594 4.921875 -1.875 C 4.621094 -1.753906 4.363281 -1.621094 3.898438 -1.621094 C 3.074219 -1.621094 2.746094 -2.054688 2.746094 -2.761719 L 2.746094 -4.785156 C 2.746094 -5.488281 3.074219 -5.925781 3.898438 -5.925781 C 4.363281 -5.925781 4.605469 -5.789062 4.921875 -5.671875 C 5.128906 -5.59375 5.265625 -5.578125 5.414062 -5.578125 C 6.164062 -5.578125 6.34375 -5.984375 6.34375 -6.34375 C 6.34375 -7.441406 4.664062 -7.648438 3.78125 -7.648438 C 1.636719 -7.648438 0.675781 -6.390625 0.675781 -4.785156 Z M 0.675781 -2.761719 "/></g></g></g><g fill="#000000" fill-opacity="1"><g transform="translate(174.764514, 200.990598)"><g><path d="M 3.929688 0.105469 C 6.058594 0.105469 7.183594 -1.109375 7.183594 -2.683594 L 7.183594 -4.921875 C 7.183594 -6.496094 6.058594 -7.710938 3.929688 -7.710938 C 1.800781 -7.710938 0.675781 -6.496094 0.675781 -4.921875 L 0.675781 -2.683594 C 0.675781 -1.109375 1.800781 0.105469 3.929688 0.105469 Z M 3.929688 -1.664062 C 3.148438 -1.664062 2.746094 -2.054688 2.746094 -2.683594 L 2.746094 -4.933594 C 2.746094 -5.550781 3.148438 -5.941406 3.929688 -5.941406 C 4.710938 -5.941406 5.113281 -5.550781 5.113281 -4.933594 L 5.113281 -2.683594 C 5.113281 -2.054688 4.710938 -1.664062 3.929688 -1.664062 Z M 3.929688 -1.664062 "/></g></g></g><g fill="#000000" fill-opacity="1"><g transform="translate(183.059515, 200.990598)"><g><path d="M 3.523438 -7.636719 C 1.378906 -7.636719 0.675781 -6.316406 0.675781 -4.53125 L 0.675781 -2.835938 C 0.675781 -1.078125 1.679688 0.105469 3.421875 0.105469 C 4.183594 0.105469 4.800781 -0.148438 5.535156 -0.554688 C 5.761719 -0.226562 6.058594 0.015625 6.433594 0.015625 C 6.898438 0.015625 7.410156 -0.300781 7.410156 -0.898438 C 7.410156 -1.109375 7.351562 -1.261719 7.199219 -1.410156 C 7.003906 -1.605469 6.914062 -1.710938 6.914062 -1.933594 L 6.914062 -9.914062 C 6.914062 -10.410156 6.539062 -10.828125 5.878906 -10.828125 C 5.21875 -10.828125 4.84375 -10.425781 4.84375 -9.914062 L 4.84375 -7.351562 C 4.304688 -7.574219 3.988281 -7.636719 3.523438 -7.636719 Z M 4.84375 -2.234375 C 4.84375 -2.144531 4.859375 -2.054688 4.875 -1.949219 C 4.410156 -1.738281 4.035156 -1.636719 3.71875 -1.636719 C 3.074219 -1.636719 2.746094 -2.054688 2.746094 -2.835938 L 2.746094 -4.53125 C 2.746094 -5.460938 3.015625 -5.925781 3.75 -5.925781 C 4.003906 -5.925781 4.378906 -5.863281 4.84375 -5.730469 Z M 4.84375 -2.234375 "/></g></g></g><g fill="#000000" fill-opacity="1"><g transform="translate(191.564514, 200.990598)"><g><path d="M 3.300781 -9.660156 C 3.300781 -10.230469 2.789062 -10.710938 2.128906 -10.710938 C 1.46875 -10.710938 0.960938 -10.246094 0.960938 -9.660156 C 0.960938 -9.089844 1.46875 -8.609375 2.128906 -8.609375 C 2.789062 -8.609375 3.300781 -9.074219 3.300781 -9.660156 Z M 3.164062 -6.734375 C 3.164062 -7.230469 2.714844 -7.648438 2.128906 -7.648438 C 1.546875 -7.648438 1.09375 -7.230469 1.09375 -6.734375 L 1.09375 -0.824219 C 1.09375 -0.300781 1.546875 0.105469 2.128906 0.105469 C 2.714844 0.105469 3.164062 -0.300781 3.164062 -0.824219 Z M 3.164062 -6.734375 "/></g></g></g><g fill="#000000" fill-opacity="1"><g transform="translate(196.274516, 200.990598)"><g><path d="M 3.074219 -5.355469 C 3.074219 -5.445312 3.058594 -5.535156 3.046875 -5.640625 C 3.511719 -5.851562 3.886719 -5.953125 4.199219 -5.953125 C 4.800781 -5.953125 5.175781 -5.488281 5.175781 -4.738281 L 5.175781 -0.824219 C 5.175781 -0.316406 5.550781 0.0898438 6.210938 0.0898438 C 6.871094 0.0898438 7.246094 -0.316406 7.246094 -0.824219 L 7.246094 -4.738281 C 7.246094 -6.496094 6.300781 -7.664062 4.410156 -7.664062 C 3.808594 -7.664062 3.105469 -7.46875 2.429688 -7.019531 C 2.21875 -7.289062 1.949219 -7.453125 1.636719 -7.453125 C 1.066406 -7.453125 0.628906 -7.078125 0.628906 -6.585938 C 0.628906 -6.390625 0.675781 -6.285156 0.886719 -6 C 0.945312 -5.910156 1.003906 -5.863281 1.003906 -5.371094 L 1.003906 -0.824219 C 1.003906 -0.316406 1.351562 0.0898438 2.039062 0.0898438 C 2.730469 0.0898438 3.074219 -0.316406 3.074219 -0.824219 Z M 3.074219 -5.355469 "/></g></g></g><g fill="#000000" fill-opacity="1"><g transform="translate(204.944516, 200.990598)"><g><path d="M 0.523438 1.199219 C 0.523438 2.699219 1.890625 3.628906 3.855469 3.628906 C 5.894531 3.628906 7.378906 2.640625 7.378906 1.050781 C 7.378906 -0.539062 5.878906 -1.261719 3.929688 -1.261719 L 3.300781 -1.261719 C 3.121094 -1.261719 2.878906 -1.320312 2.878906 -1.738281 C 2.878906 -1.84375 2.894531 -1.890625 2.96875 -2.085938 C 3.238281 -2.023438 3.554688 -2.011719 3.796875 -2.011719 C 5.984375 -2.011719 7.019531 -3.195312 7.019531 -4.738281 L 7.019531 -5.578125 C 7.019531 -6 7.171875 -6.136719 7.695312 -6.601562 C 7.800781 -6.691406 7.933594 -6.886719 7.933594 -7.140625 C 7.933594 -7.636719 7.46875 -8.011719 6.960938 -8.011719 C 6.539062 -8.011719 6.046875 -7.738281 5.640625 -7.183594 C 4.996094 -7.5 4.394531 -7.695312 3.628906 -7.695312 C 1.710938 -7.695312 0.628906 -6.464844 0.628906 -4.84375 C 0.628906 -4.019531 0.945312 -3.316406 1.589844 -2.773438 C 1.273438 -2.386719 1.171875 -2.023438 1.171875 -1.679688 C 1.171875 -1.363281 1.246094 -0.871094 1.484375 -0.449219 C 0.78125 0.121094 0.523438 0.613281 0.523438 1.199219 Z M 4.949219 -5.773438 L 4.949219 -4.726562 C 4.949219 -4.050781 4.605469 -3.628906 3.855469 -3.628906 C 3.046875 -3.628906 2.699219 -4.09375 2.699219 -4.816406 C 2.699219 -5.59375 3.121094 -6.03125 3.886719 -6.03125 C 4.230469 -6.03125 4.558594 -5.941406 4.949219 -5.773438 Z M 3.960938 0.433594 C 4.890625 0.433594 5.308594 0.644531 5.308594 1.09375 C 5.308594 1.621094 4.738281 1.933594 3.886719 1.933594 C 3.015625 1.933594 2.59375 1.605469 2.59375 1.050781 C 2.59375 0.808594 2.683594 0.644531 2.863281 0.421875 Z M 3.960938 0.433594 "/></g></g></g><g fill="#000000" fill-opacity="1"><g transform="translate(213.374511, 200.990598)"><g/></g></g><g fill="#000000" fill-opacity="1"><g transform="translate(218.309518, 200.990598)"><g><path d="M 8.355469 -3.601562 L 8.355469 -9.71875 C 8.355469 -10.246094 7.890625 -10.710938 7.273438 -10.710938 C 6.691406 -10.710938 6.238281 -10.246094 6.238281 -9.71875 L 6.238281 -3.601562 C 6.238281 -2.535156 5.714844 -1.769531 4.589844 -1.769531 C 3.449219 -1.769531 2.925781 -2.519531 2.925781 -3.601562 L 2.925781 -9.71875 C 2.925781 -10.261719 2.445312 -10.710938 1.890625 -10.710938 C 1.289062 -10.710938 0.824219 -10.289062 0.824219 -9.71875 L 0.824219 -3.601562 C 0.824219 -1.453125 2.175781 0.136719 4.589844 0.136719 C 6.960938 0.136719 8.355469 -1.441406 8.355469 -3.601562 Z M 8.355469 -3.601562 "/></g></g></g><g fill="#000000" fill-opacity="1"><g transform="translate(227.924511, 200.990598)"><g><path d="M 3.074219 -5.355469 C 3.074219 -5.445312 3.058594 -5.535156 3.046875 -5.640625 C 3.511719 -5.851562 3.886719 -5.953125 4.199219 -5.953125 C 4.800781 -5.953125 5.175781 -5.488281 5.175781 -4.738281 L 5.175781 -0.824219 C 5.175781 -0.316406 5.550781 0.0898438 6.210938 0.0898438 C 6.871094 0.0898438 7.246094 -0.316406 7.246094 -0.824219 L 7.246094 -4.738281 C 7.246094 -6.496094 6.300781 -7.664062 4.410156 -7.664062 C 3.808594 -7.664062 3.105469 -7.46875 2.429688 -7.019531 C 2.21875 -7.289062 1.949219 -7.453125 1.636719 -7.453125 C 1.066406 -7.453125 0.628906 -7.078125 0.628906 -6.585938 C 0.628906 -6.390625 0.675781 -6.285156 0.886719 -6 C 0.945312 -5.910156 1.003906 -5.863281 1.003906 -5.371094 L 1.003906 -0.824219 C 1.003906 -0.316406 1.351562 0.0898438 2.039062 0.0898438 C 2.730469 0.0898438 3.074219 -0.316406 3.074219 -0.824219 Z M 3.074219 -5.355469 "/></g></g></g><g fill="#000000" fill-opacity="1"><g transform="translate(236.594509, 200.990598)"><g><path d="M 3.300781 -9.660156 C 3.300781 -10.230469 2.789062 -10.710938 2.128906 -10.710938 C 1.46875 -10.710938 0.960938 -10.246094 0.960938 -9.660156 C 0.960938 -9.089844 1.46875 -8.609375 2.128906 -8.609375 C 2.789062 -8.609375 3.300781 -9.074219 3.300781 -9.660156 Z M 3.164062 -6.734375 C 3.164062 -7.230469 2.714844 -7.648438 2.128906 -7.648438 C 1.546875 -7.648438 1.09375 -7.230469 1.09375 -6.734375 L 1.09375 -0.824219 C 1.09375 -0.300781 1.546875 0.105469 2.128906 0.105469 C 2.714844 0.105469 3.164062 -0.300781 3.164062 -0.824219 Z M 3.164062 -6.734375 "/></g></g></g><g fill="#000000" fill-opacity="1"><g transform="translate(241.304508, 200.990598)"><g><path d="M 2.21875 -7.019531 C 2.085938 -7.410156 1.664062 -7.664062 1.261719 -7.664062 C 0.71875 -7.664062 0.238281 -7.304688 0.238281 -6.765625 C 0.238281 -6.691406 0.238281 -6.613281 0.269531 -6.511719 L 2.355469 -0.78125 C 2.578125 -0.164062 2.894531 0.105469 3.554688 0.105469 C 4.183594 0.105469 4.5 -0.164062 4.738281 -0.808594 L 6.796875 -6.496094 C 6.824219 -6.601562 6.824219 -6.675781 6.824219 -6.75 C 6.824219 -7.289062 6.34375 -7.648438 5.804688 -7.648438 C 5.398438 -7.648438 4.964844 -7.394531 4.828125 -7.003906 L 4.050781 -4.5 C 3.808594 -3.691406 3.71875 -2.851562 3.554688 -2.023438 C 3.390625 -2.851562 3.300781 -3.691406 3.046875 -4.5 Z M 2.21875 -7.019531 "/></g></g></g><g fill="#000000" fill-opacity="1"><g transform="translate(248.789504, 200.990598)"><g><path d="M 3.898438 -2.863281 C 5.925781 -2.863281 6.808594 -3.703125 6.808594 -5.144531 C 6.808594 -6.660156 5.835938 -7.695312 3.871094 -7.695312 C 1.785156 -7.695312 0.675781 -6.539062 0.675781 -5.023438 L 0.675781 -2.519531 C 0.675781 -1.035156 1.816406 0.105469 3.796875 0.105469 C 4.753906 0.105469 6.675781 -0.164062 6.675781 -1.214844 C 6.675781 -1.558594 6.464844 -2.039062 5.746094 -2.039062 C 5.488281 -2.039062 5.355469 -1.980469 5.296875 -1.949219 C 4.816406 -1.738281 4.425781 -1.621094 3.945312 -1.621094 C 3.136719 -1.621094 2.746094 -1.949219 2.746094 -2.460938 L 2.746094 -2.953125 C 3.179688 -2.894531 3.511719 -2.863281 3.898438 -2.863281 Z M 4.753906 -5.25 C 4.753906 -4.605469 4.394531 -4.410156 3.824219 -4.410156 C 3.675781 -4.410156 3.226562 -4.425781 2.746094 -4.46875 L 2.746094 -5.113281 C 2.746094 -5.714844 3.136719 -6.089844 3.855469 -6.089844 C 4.441406 -6.089844 4.753906 -5.851562 4.753906 -5.25 Z M 4.753906 -5.25 "/></g></g></g><g fill="#000000" fill-opacity="1"><g transform="translate(256.499503, 200.990598)"><g><path d="M 4.484375 -5.789062 C 5.054688 -5.761719 5.535156 -6.148438 5.535156 -6.734375 C 5.535156 -7.246094 5.25 -7.636719 4.304688 -7.636719 C 3.824219 -7.636719 3.136719 -7.394531 2.445312 -6.988281 C 2.234375 -7.261719 1.964844 -7.453125 1.648438 -7.453125 C 1.109375 -7.453125 0.628906 -7.09375 0.628906 -6.554688 C 0.628906 -6.328125 0.71875 -6.210938 0.839844 -6.058594 C 0.960938 -5.878906 1.003906 -5.699219 1.003906 -5.355469 L 1.003906 -0.824219 C 1.003906 -0.300781 1.453125 0.105469 2.039062 0.105469 C 2.625 0.105469 3.074219 -0.300781 3.074219 -0.824219 L 3.074219 -5.355469 C 3.074219 -5.445312 3.058594 -5.535156 3.046875 -5.640625 C 3.570312 -5.851562 3.839844 -5.820312 4.484375 -5.789062 Z M 4.484375 -5.789062 "/></g></g></g><g fill="#000000" fill-opacity="1"><g transform="translate(262.589499, 200.990598)"><g><path d="M 0.644531 -5.371094 C 0.644531 -3.285156 2.851562 -3.238281 3.824219 -2.699219 C 3.988281 -2.609375 4.140625 -2.488281 4.140625 -2.21875 C 4.140625 -1.800781 3.765625 -1.621094 3.226562 -1.621094 C 2.488281 -1.621094 2.023438 -1.949219 1.53125 -1.949219 C 0.945312 -1.949219 0.554688 -1.5 0.554688 -1.066406 C 0.554688 -0.136719 2.296875 0.105469 3.253906 0.105469 C 5.144531 0.105469 6.179688 -0.808594 6.179688 -2.265625 C 6.179688 -4.261719 4.214844 -4.46875 3.136719 -4.933594 C 2.804688 -5.070312 2.683594 -5.21875 2.683594 -5.429688 C 2.683594 -5.773438 2.984375 -5.96875 3.554688 -5.96875 C 4.289062 -5.96875 4.558594 -5.65625 5.085938 -5.65625 C 5.398438 -5.65625 5.96875 -5.773438 5.96875 -6.421875 C 5.96875 -7.453125 4.515625 -7.695312 3.539062 -7.695312 C 1.621094 -7.695312 0.644531 -6.75 0.644531 -5.371094 Z M 0.644531 -5.371094 "/></g></g></g><g fill="#000000" fill-opacity="1"><g transform="translate(269.714498, 200.990598)"><g><path d="M 3.898438 -2.863281 C 5.925781 -2.863281 6.808594 -3.703125 6.808594 -5.144531 C 6.808594 -6.660156 5.835938 -7.695312 3.871094 -7.695312 C 1.785156 -7.695312 0.675781 -6.539062 0.675781 -5.023438 L 0.675781 -2.519531 C 0.675781 -1.035156 1.816406 0.105469 3.796875 0.105469 C 4.753906 0.105469 6.675781 -0.164062 6.675781 -1.214844 C 6.675781 -1.558594 6.464844 -2.039062 5.746094 -2.039062 C 5.488281 -2.039062 5.355469 -1.980469 5.296875 -1.949219 C 4.816406 -1.738281 4.425781 -1.621094 3.945312 -1.621094 C 3.136719 -1.621094 2.746094 -1.949219 2.746094 -2.460938 L 2.746094 -2.953125 C 3.179688 -2.894531 3.511719 -2.863281 3.898438 -2.863281 Z M 4.753906 -5.25 C 4.753906 -4.605469 4.394531 -4.410156 3.824219 -4.410156 C 3.675781 -4.410156 3.226562 -4.425781 2.746094 -4.46875 L 2.746094 -5.113281 C 2.746094 -5.714844 3.136719 -6.089844 3.855469 -6.089844 C 4.441406 -6.089844 4.753906 -5.851562 4.753906 -5.25 Z M 4.753906 -5.25 "/></g></g></g></svg>